<mxfile host="app.diagrams.net" modified="2024-04-02T10:14:25.766Z" agent="Mozilla/5.0 (X11; Linux x86_64) AppleWebKit/537.36 (KHTML, like Gecko) Chrome/122.0.0.0 Safari/537.36" etag="UyJUQx3I80ANpTxedIyJ" version="24.2.1" type="device">
  <diagram name="PaginÄƒ-1" id="JgvY0F0RjGHaR8JP8G4l">
    <mxGraphModel dx="1106" dy="804" grid="0" gridSize="10" guides="1" tooltips="1" connect="1" arrows="1" fold="1" page="0" pageScale="1" pageWidth="827" pageHeight="1169" math="0" shadow="0">
      <root>
        <mxCell id="0" />
        <mxCell id="1" parent="0" />
        <mxCell id="I2G5pcBto3W5RXArEjqU-1" value="&lt;p style=&quot;margin:0px;margin-top:4px;text-align:center;&quot;&gt;&lt;i&gt;&amp;lt;&amp;lt;Interface&amp;gt;&amp;gt;&lt;/i&gt;&lt;br&gt;&lt;b&gt;AudioFile&lt;/b&gt;&lt;/p&gt;&lt;hr size=&quot;1&quot; style=&quot;border-style:solid;&quot;&gt;&lt;p style=&quot;margin:0px;margin-left:4px;&quot;&gt;+ __init__()&lt;/p&gt;" style="verticalAlign=top;align=left;overflow=fill;html=1;whiteSpace=wrap;" parent="1" vertex="1">
          <mxGeometry x="170" y="35" width="102" height="66" as="geometry" />
        </mxCell>
        <mxCell id="I2G5pcBto3W5RXArEjqU-2" value="&lt;p style=&quot;margin:0px;margin-top:4px;text-align:center;&quot;&gt;&lt;b&gt;MP3File&lt;/b&gt;&lt;/p&gt;&lt;hr size=&quot;1&quot; style=&quot;border-style:solid;&quot;&gt;&lt;p style=&quot;margin:0px;margin-left:4px;&quot;&gt;+ ext: String&lt;/p&gt;&lt;hr size=&quot;1&quot; style=&quot;border-style:solid;&quot;&gt;&lt;p style=&quot;margin:0px;margin-left:4px;&quot;&gt;+ play(): void&lt;/p&gt;" style="verticalAlign=top;align=left;overflow=fill;html=1;whiteSpace=wrap;" parent="1" vertex="1">
          <mxGeometry x="-98" y="101" width="160" height="90" as="geometry" />
        </mxCell>
        <mxCell id="I2G5pcBto3W5RXArEjqU-3" value="&lt;p style=&quot;margin:0px;margin-top:4px;text-align:center;&quot;&gt;&lt;b&gt;WavFile&lt;/b&gt;&lt;/p&gt;&lt;hr style=&quot;border-style: solid;&quot; size=&quot;1&quot;&gt;&lt;p style=&quot;margin: 0px 0px 0px 4px;&quot;&gt;+ ext: String&lt;/p&gt;&lt;hr style=&quot;border-style: solid;&quot; size=&quot;1&quot;&gt;&lt;p style=&quot;margin: 0px 0px 0px 4px;&quot;&gt;+ play(): void&lt;/p&gt;" style="verticalAlign=top;align=left;overflow=fill;html=1;whiteSpace=wrap;" parent="1" vertex="1">
          <mxGeometry x="141" y="154" width="160" height="90" as="geometry" />
        </mxCell>
        <mxCell id="I2G5pcBto3W5RXArEjqU-4" value="&lt;p style=&quot;margin:0px;margin-top:4px;text-align:center;&quot;&gt;&lt;b&gt;OggFile&lt;/b&gt;&lt;/p&gt;&lt;hr style=&quot;border-style: solid;&quot; size=&quot;1&quot;&gt;&lt;p style=&quot;margin: 0px 0px 0px 4px;&quot;&gt;+ ext: String&lt;/p&gt;&lt;hr style=&quot;border-style: solid;&quot; size=&quot;1&quot;&gt;&lt;p style=&quot;margin: 0px 0px 0px 4px;&quot;&gt;+ play(): void&lt;/p&gt;" style="verticalAlign=top;align=left;overflow=fill;html=1;whiteSpace=wrap;" parent="1" vertex="1">
          <mxGeometry x="380" y="101" width="160" height="90" as="geometry" />
        </mxCell>
        <mxCell id="I2G5pcBto3W5RXArEjqU-5" value="&lt;p style=&quot;margin:0px;margin-top:4px;text-align:center;&quot;&gt;&lt;b&gt;FlacFile&lt;/b&gt;&lt;/p&gt;&lt;hr size=&quot;1&quot; style=&quot;border-style:solid;&quot;&gt;&lt;p style=&quot;margin:0px;margin-left:4px;&quot;&gt;&lt;span style=&quot;background-color: initial;&quot;&gt;+ play(): void&lt;/span&gt;&lt;/p&gt;" style="verticalAlign=top;align=left;overflow=fill;html=1;whiteSpace=wrap;" parent="1" vertex="1">
          <mxGeometry x="272" y="303" width="90" height="74" as="geometry" />
        </mxCell>
        <mxCell id="I2G5pcBto3W5RXArEjqU-6" value="Use" style="endArrow=open;endSize=12;dashed=1;html=1;rounded=0;fontSize=12;curved=1;" parent="1" source="I2G5pcBto3W5RXArEjqU-2" target="I2G5pcBto3W5RXArEjqU-1" edge="1">
          <mxGeometry width="160" relative="1" as="geometry">
            <mxPoint x="-52" y="243" as="sourcePoint" />
            <mxPoint x="108" y="243" as="targetPoint" />
          </mxGeometry>
        </mxCell>
        <mxCell id="I2G5pcBto3W5RXArEjqU-7" value="Use" style="endArrow=open;endSize=12;dashed=1;html=1;rounded=0;fontSize=12;curved=1;" parent="1" source="I2G5pcBto3W5RXArEjqU-3" target="I2G5pcBto3W5RXArEjqU-1" edge="1">
          <mxGeometry width="160" relative="1" as="geometry">
            <mxPoint x="-42" y="253" as="sourcePoint" />
            <mxPoint x="180" y="111" as="targetPoint" />
          </mxGeometry>
        </mxCell>
        <mxCell id="I2G5pcBto3W5RXArEjqU-8" value="Use" style="endArrow=open;endSize=12;dashed=1;html=1;rounded=0;fontSize=12;curved=1;" parent="1" source="I2G5pcBto3W5RXArEjqU-4" target="I2G5pcBto3W5RXArEjqU-1" edge="1">
          <mxGeometry width="160" relative="1" as="geometry">
            <mxPoint x="231" y="164" as="sourcePoint" />
            <mxPoint x="231" y="111" as="targetPoint" />
          </mxGeometry>
        </mxCell>
        <mxCell id="I2G5pcBto3W5RXArEjqU-9" value="AudioTester" style="swimlane;fontStyle=1;align=center;verticalAlign=top;childLayout=stackLayout;horizontal=1;startSize=26;horizontalStack=0;resizeParent=1;resizeParentMax=0;resizeLast=0;collapsible=1;marginBottom=0;whiteSpace=wrap;html=1;" parent="1" vertex="1">
          <mxGeometry x="49" y="345" width="160" height="79" as="geometry" />
        </mxCell>
        <mxCell id="I2G5pcBto3W5RXArEjqU-12" value="+ readFiles()&lt;div&gt;+ checkFile()&lt;/div&gt;&lt;div&gt;+ run()&lt;/div&gt;" style="text;strokeColor=none;fillColor=none;align=left;verticalAlign=top;spacingLeft=4;spacingRight=4;overflow=hidden;rotatable=0;points=[[0,0.5],[1,0.5]];portConstraint=eastwest;whiteSpace=wrap;html=1;" parent="I2G5pcBto3W5RXArEjqU-9" vertex="1">
          <mxGeometry y="26" width="160" height="53" as="geometry" />
        </mxCell>
        <mxCell id="I2G5pcBto3W5RXArEjqU-14" style="edgeStyle=none;curved=1;rounded=0;orthogonalLoop=1;jettySize=auto;html=1;exitX=0.25;exitY=0;exitDx=0;exitDy=0;fontSize=12;startSize=8;endSize=8;" parent="1" source="I2G5pcBto3W5RXArEjqU-5" target="I2G5pcBto3W5RXArEjqU-5" edge="1">
          <mxGeometry relative="1" as="geometry" />
        </mxCell>
        <mxCell id="I2G5pcBto3W5RXArEjqU-15" value="" style="endArrow=diamondThin;endFill=1;endSize=24;html=1;rounded=0;fontSize=12;curved=1;" parent="1" source="I2G5pcBto3W5RXArEjqU-9" target="I2G5pcBto3W5RXArEjqU-3" edge="1">
          <mxGeometry width="160" relative="1" as="geometry">
            <mxPoint x="122" y="415" as="sourcePoint" />
            <mxPoint x="282" y="415" as="targetPoint" />
          </mxGeometry>
        </mxCell>
        <mxCell id="I2G5pcBto3W5RXArEjqU-16" value="" style="endArrow=diamondThin;endFill=1;endSize=24;html=1;rounded=0;fontSize=12;curved=1;" parent="1" source="I2G5pcBto3W5RXArEjqU-9" target="I2G5pcBto3W5RXArEjqU-2" edge="1">
          <mxGeometry width="160" relative="1" as="geometry">
            <mxPoint x="84" y="331" as="sourcePoint" />
            <mxPoint x="177" y="254" as="targetPoint" />
          </mxGeometry>
        </mxCell>
        <mxCell id="I2G5pcBto3W5RXArEjqU-17" value="" style="endArrow=diamondThin;endFill=1;endSize=24;html=1;rounded=0;fontSize=12;curved=1;" parent="1" source="I2G5pcBto3W5RXArEjqU-9" target="I2G5pcBto3W5RXArEjqU-5" edge="1">
          <mxGeometry width="160" relative="1" as="geometry">
            <mxPoint x="28" y="331" as="sourcePoint" />
            <mxPoint x="1" y="201" as="targetPoint" />
          </mxGeometry>
        </mxCell>
        <mxCell id="I2G5pcBto3W5RXArEjqU-18" value="" style="endArrow=diamondThin;endFill=1;endSize=24;html=1;rounded=0;fontSize=12;curved=1;" parent="1" source="I2G5pcBto3W5RXArEjqU-9" target="I2G5pcBto3W5RXArEjqU-4" edge="1">
          <mxGeometry width="160" relative="1" as="geometry">
            <mxPoint x="116" y="365" as="sourcePoint" />
            <mxPoint x="282" y="353" as="targetPoint" />
          </mxGeometry>
        </mxCell>
      </root>
    </mxGraphModel>
  </diagram>
</mxfile>
